<?xml version="1.0" encoding="UTF-8"?><svg id="Layer_2" xmlns="http://www.w3.org/2000/svg" viewBox="0 0 555.78 181.27"><defs><style>.cls-1{fill:#303287;}.cls-1,.cls-2{stroke-width:0px;}.cls-2{fill:#f3591f;}</style></defs><g id="Layer_1-2"><path class="cls-1" d="m159.7,57.92c.25.25.37.53.37.86v60.13h-9.33c-.33,0-.63-.14-.92-.43-.29-.29-.43-.59-.43-.92v-60h9.33c.41,0,.74.12.98.37Z"/><path class="cls-1" d="m240.99,59.95c2.74,1.6,4.91,3.76,6.5,6.5,1.59,2.74,2.39,5.75,2.39,9.02v43.44h-9.33c-.33,0-.64-.14-.92-.43-.29-.29-.43-.59-.43-.92v-42.7c0-1.96-.7-3.66-2.09-5.09-1.39-1.43-3.11-2.15-5.15-2.15h-15.95c1.47.9,2.21,2.05,2.21,3.44v47.86h-9.33c-.33,0-.63-.14-.92-.43-.29-.29-.43-.59-.43-.92v-48.59c0-.41-.12-.74-.37-.98s-.57-.37-.98-.37h-18.53c-.66,0-1.06.37-1.23,1.1v48.84c0,.33-.12.63-.37.92-.25.29-.57.43-.98.43h-9.33v-53.38c0-2.21.78-4.09,2.33-5.64,1.55-1.55,3.44-2.33,5.64-2.33h48.22c3.27,0,6.28.8,9.02,2.39Z"/><path class="cls-1" d="m313.51,110.56c-1.6,2.62-3.76,4.66-6.5,6.14-2.74,1.47-5.75,2.21-9.02,2.21h-14.11c-1.8,0-3.44-.39-4.91-1.17-1.47-.78-2.62-1.7-3.44-2.76v32.52c0,.41-.12.74-.37.98-.25.25-.57.37-.98.37h-9.33V61.36c0-1.06.39-1.96,1.17-2.7.78-.74,1.7-1.1,2.76-1.1h29.2c5.23,0,9.53,1.43,12.88,4.29,3.35,2.86,5.03,7.2,5.03,13.01v26.75c0,3.36-.8,6.34-2.39,8.96Zm-8.28-35.71c0-4.83-2.41-7.24-7.24-7.24h-21.11c-.33,0-.64.12-.92.37-.29.25-.43.57-.43.98v33.5c.16,1.64.8,3.05,1.9,4.23,1.1,1.19,2.43,1.86,3.99,2.03h16.57c1.96,0,3.66-.69,5.09-2.09,1.43-1.39,2.15-3.11,2.15-5.15v-26.63Z"/><path class="cls-1" d="m340.93,27.25c.25.25.37.57.37.98v90.68h-9.33c-.33,0-.63-.14-.92-.43-.29-.29-.43-.59-.43-.92V26.88h9.33c.41,0,.74.12.98.37Z"/><path class="cls-1" d="m367.31,57.92c.25.25.37.53.37.86v60.13h-9.33c-.33,0-.63-.14-.92-.43-.29-.29-.43-.59-.43-.92v-60h9.33c.41,0,.74.12.98.37Z"/><path class="cls-1" d="m394.92,69.89c-1.39,1.43-2.09,3.17-2.09,5.22v26.38c0,2.05.69,3.76,2.09,5.15,1.39,1.39,3.11,2.09,5.15,2.09h21.72c.41,0,.74.12.98.37.25.25.37.57.37.98v8.84h-23.07c-3.19,0-6.18-.8-8.96-2.39-2.78-1.6-4.97-3.76-6.56-6.5-1.6-2.74-2.39-5.75-2.39-9.02v-25.4c0-3.27.8-6.28,2.39-9.02,1.6-2.74,3.78-4.91,6.56-6.5,2.78-1.6,5.77-2.39,8.96-2.39h23.07v8.83c0,.33-.12.61-.37.86-.25.25-.57.37-.98.37h-21.72c-2.05,0-3.76.72-5.15,2.15Z"/><path class="cls-1" d="m447.68,57.92c.25.25.37.53.37.86v60.13h-9.33c-.33,0-.63-.14-.92-.43-.29-.29-.43-.59-.43-.92v-60h9.33c.41,0,.74.12.98.37Z"/><path class="cls-1" d="m493.57,109.09c.25.25.37.57.37.98v8.84h-12.39c-3.19,0-6.18-.8-8.96-2.39-2.78-1.6-4.97-3.76-6.56-6.5-1.6-2.74-2.39-5.75-2.39-9.02V27.86h9.33c.41,0,.74.12.98.37s.37.57.37.98v30.68c.33-.65.8-1.19,1.41-1.6.61-.41,1.33-.61,2.15-.61h13.01v8.83c0,.33-.12.61-.37.86s-.57.37-.98.37h-15.22v33.74c0,2.05.69,3.76,2.09,5.15,1.39,1.39,3.11,2.09,5.15,2.09h11.04c.41,0,.74.12.98.37Z"/><path class="cls-1" d="m554.43,57.55c.41,0,.74.12.98.37.25.25.37.53.37.86v72.15c0,3.27-.8,6.28-2.39,9.02-1.59,2.74-3.78,4.91-6.56,6.5-2.78,1.59-5.77,2.39-8.96,2.39h-30.19v-8.84c0-.33.14-.63.43-.92.29-.29.59-.43.92-.43h28.84c1.96,0,3.66-.72,5.09-2.15,1.43-1.43,2.15-3.13,2.15-5.09v-16.44c-.9,1.15-2.09,2.09-3.56,2.82-1.47.74-3.11,1.1-4.91,1.1h-13.87c-3.27,0-6.28-.8-9.02-2.39-2.74-1.6-4.91-3.78-6.5-6.56-1.6-2.78-2.39-5.77-2.39-8.96v-43.44h9.33c.41,0,.74.12.98.37s.37.53.37.86v42.7c0,1.96.69,3.66,2.09,5.09,1.39,1.43,3.11,2.15,5.15,2.15h16.32c1.64-.25,3.03-.96,4.17-2.15,1.15-1.19,1.76-2.56,1.84-4.11v-44.91h9.33Z"/><path class="cls-1" d="m58.07,43.54s-13.44-2.61-13.37,19.12c.07,21.72.09,27.2.09,27.2l-27.93-16.03c-3.74-2.15-7.09-4.95-9.74-8.35C3.26,60.55-.91,52.99.17,44.24c1.92-15.57,14.89-25.79,33.91-14.13l23.99,13.44Z"/><path class="cls-2" d="m129.92,84.62l-.13-39.51s.86-12.17-13.41-20.35L75,1.92s-13.61-4.83-23.35.84L10.37,27.14s6.76-4.65,17.77-.07c6.24,2.6,101.78,57.55,101.78,57.55Z"/><path class="cls-1" d="m72,132.19s13.44,2.61,13.37-19.12c-.07-21.72-.09-27.2-.09-27.2l27.93,16.03c3.74,2.15,7.09,4.95,9.74,8.35,3.85,4.93,8.02,12.48,6.94,21.24-1.92,15.57-14.89,25.79-33.91,14.13l-23.99-13.44Z"/><path class="cls-2" d="m.15,91.1l.13,39.51s-.86,12.17,13.41,20.35l41.38,22.84s13.61,4.83,23.35-.84l41.29-24.38s-6.76,4.65-17.77.07C95.69,146.06.15,91.1.15,91.1Z"/><path class="cls-1" d="m151.72,180.76v-29.66h4.9v29.66h-4.9Z"/><path class="cls-1" d="m161.37,180.76v-29.66h4.77l9.95,19.8v-19.8h4.57v29.66h-4.94l-9.79-19.34v19.34h-4.57Z"/><path class="cls-1" d="m191.31,180.76v-24.64h-7.22v-5.02h19.32v5.02h-7.2v24.64h-4.9Z"/><path class="cls-1" d="m206.6,180.76v-29.66h10.34c2.64,0,4.53.27,5.67.8,1.13.53,2.06,1.46,2.79,2.77s1.09,2.89,1.09,4.72c0,2.32-.56,4.19-1.67,5.6s-2.69,2.31-4.74,2.67c1.05.76,1.92,1.58,2.61,2.48.69.9,1.62,2.51,2.81,4.82l2.95,5.79h-5.86l-3.55-6.45c-1.28-2.33-2.15-3.79-2.61-4.38-.46-.59-.94-.99-1.46-1.21-.51-.22-1.33-.33-2.47-.33h-1.01v12.38h-4.9Zm4.9-17.11h3.64c2.22,0,3.64-.1,4.25-.29.61-.2,1.1-.59,1.48-1.18s.57-1.38.57-2.37-.19-1.7-.57-2.28-.89-.97-1.54-1.18c-.46-.15-1.79-.22-3.99-.22h-3.84v7.53Z"/><path class="cls-1" d="m253.05,180.76h-5.32l-2.13-6.72h-9.74l-2.01,6.72h-5.22l9.47-29.66h5.2l9.75,29.66Zm-9.03-11.73l-3.36-11-3.29,11h6.65Z"/><path class="cls-1" d="m255.68,180.76v-29.66h4.77l9.95,19.8v-19.8h4.57v29.66h-4.94l-9.79-19.34v19.34h-4.57Z"/><path class="cls-1" d="m280.16,180.76v-29.66h18.04v5.02h-13.15v6.57h12.22v5h-12.22v8.05h13.59v5.02h-18.49Z"/><path class="cls-1" d="m308.28,180.76v-24.64h-7.22v-5.02h19.32v5.02h-7.2v24.64h-4.9Z"/><path class="cls-1" d="m336.46,180.76l-5.83-29.66h5.04l3.65,20.38,4.44-20.38h5.85l4.27,20.73,3.75-20.73h4.94l-5.91,29.66h-5.23l-4.86-22.18-4.81,22.18h-5.31Z"/><path class="cls-1" d="m365.08,180.76v-29.66h18.04v5.02h-13.15v6.57h12.22v5h-12.22v8.05h13.59v5.02h-18.49Z"/><path class="cls-1" d="m387.72,151.11h9.74c2.66,0,4.53.24,5.61.73s1.99,1.34,2.73,2.57,1.11,2.62,1.11,4.17c0,1.43-.32,2.72-.96,3.87-.64,1.15-1.46,2.01-2.48,2.56,1.44.51,2.57,1.39,3.38,2.63.81,1.24,1.22,2.75,1.22,4.53,0,2.16-.52,3.98-1.56,5.47s-2.27,2.41-3.68,2.76c-.98.24-3.27.36-6.86.36h-8.27v-29.66Zm4.9,4.94v6.86h3.24c1.94,0,3.14-.03,3.6-.1.84-.13,1.49-.49,1.96-1.06.47-.57.71-1.35.71-2.34,0-.88-.19-1.59-.58-2.13s-.85-.89-1.4-1.02c-.55-.13-2.11-.2-4.7-.2h-2.83Zm0,11.79v7.91h4.56c2,0,3.28-.1,3.85-.31.57-.21,1.04-.62,1.43-1.23.38-.61.58-1.39.58-2.33s-.21-1.77-.62-2.39-.96-1.06-1.64-1.29c-.68-.23-2.08-.35-4.19-.35h-3.97Z"/><path class="cls-1" d="m421.68,180.76v-29.66h7.89c2.94,0,4.86.14,5.77.42,1.44.46,2.63,1.44,3.57,2.93s1.41,3.43,1.41,5.79c0,2.14-.41,3.94-1.21,5.39-.81,1.45-1.82,2.47-3.03,3.05-1.21.59-3.3.88-6.27.88h-3.22v11.19h-4.9Zm4.9-24.64v8.44h2.72c1.82,0,3.06-.13,3.72-.39.66-.26,1.19-.72,1.61-1.39s.63-1.49.63-2.46-.22-1.82-.65-2.49c-.43-.68-.97-1.13-1.6-1.36-.63-.23-1.98-.34-4.04-.34h-2.39Z"/><path class="cls-1" d="m443.35,166.12c0-3.53.52-6.44,1.57-8.73,1.04-2.29,2.41-3.99,4.1-5.11,1.69-1.12,3.73-1.68,6.13-1.68,3.48,0,6.31,1.33,8.51,3.99,2.19,2.66,3.29,6.44,3.29,11.35s-1.16,8.84-3.48,11.63c-2.04,2.47-4.8,3.7-8.29,3.7s-6.3-1.22-8.33-3.66c-2.32-2.79-3.48-6.62-3.48-11.49Zm5.06-.2c0,3.41.65,5.97,1.95,7.68,1.3,1.71,2.9,2.56,4.82,2.56s3.53-.85,4.8-2.54c1.27-1.69,1.9-4.29,1.9-7.8s-.62-5.98-1.85-7.63c-1.24-1.65-2.85-2.47-4.85-2.47s-3.63.83-4.88,2.49c-1.26,1.66-1.88,4.23-1.88,7.71Z"/><path class="cls-1" d="m470.8,180.76v-29.66h10.34c2.64,0,4.53.27,5.67.8,1.13.53,2.06,1.46,2.79,2.77s1.09,2.89,1.09,4.72c0,2.32-.56,4.19-1.67,5.6s-2.69,2.31-4.74,2.67c1.05.76,1.92,1.58,2.61,2.48.69.9,1.62,2.51,2.81,4.82l2.95,5.79h-5.86l-3.55-6.45c-1.28-2.33-2.15-3.79-2.61-4.38-.46-.59-.94-.99-1.46-1.21-.51-.22-1.33-.33-2.47-.33h-1.01v12.38h-4.9Zm4.9-17.11h3.64c2.22,0,3.64-.1,4.25-.29.61-.2,1.1-.59,1.48-1.18s.57-1.38.57-2.37-.19-1.7-.57-2.28-.89-.97-1.54-1.18c-.46-.15-1.79-.22-3.99-.22h-3.84v7.53Z"/><path class="cls-1" d="m500.78,180.76v-24.64h-7.22v-5.02h19.32v5.02h-7.2v24.64h-4.9Z"/><path class="cls-1" d="m535.52,180.76h-5.32l-2.13-6.72h-9.74l-2.01,6.72h-5.22l9.47-29.66h5.2l9.75,29.66Zm-9.03-11.73l-3.36-11-3.29,11h6.65Z"/><path class="cls-1" d="m538.23,180.76v-29.41h4.9v24.4h12.22v5.02h-17.11Z"/></g></svg>